{
  "accessors": [
    {
      "bufferView": 2,
      "componentType": 5126,
      "count": 82,
      "max": [
        47.42259979248047,
        -15.10319995880127,
        5.205510139465332
      ],
      "min": [
        45.41849899291992,
        -15.996999740600586,
        5.004839897155762
      ],
      "type": "VEC3"
    },
    {
      "bufferView": 2,
      "byteOffset": 984,
      "componentType": 5126,
      "count": 82,
      "max": [
        1.0,
        0.9997738003730774,
        0.9997456669807434
      ],
      "min": [
        -1.0,
        -0.9974368214607239,
        -0.9999999403953552
      ],
      "type": "VEC3"
    },
    {
      "bufferView": 1,
      "componentType": 5126,
      "count": 82,
      "max": [
        0.9906359910964966,
        -0.014646099880337715
      ],
      "min": [
        0.00942699983716011,
        -0.988519012928009
      ],
      "type": "VEC2"
    },
    {
      "bufferView": 0,
      "componentType": 5125,
      "count": 180,
      "type": "SCALAR"
    },
    {
      "bufferView": 2,
      "byteOffset": 1968,
      "componentType": 5126,
      "count": 156,
      "max": [
        47.39149856567383,
        -14.105999946594238,
        6.712369918823242
      ],
      "min": [
        45.5452995300293,
        -14.642999649047852,
        5.012239933013916
      ],
      "type": "VEC3"
    },
    {
      "bufferView": 2,
      "byteOffset": 3840,
      "componentType": 5126,
      "count": 156,
      "max": [
        1.0,
        1.0,
        0.9999999403953552
      ],
      "min": [
        -1.0,
        -1.0,
        -0.9999999403953552
      ],
      "type": "VEC3"
    },
    {
      "bufferView": 1,
      "byteOffset": 656,
      "componentType": 5126,
      "count": 156,
      "max": [
        0.9898790121078491,
        -0.0084799500182271
      ],
      "min": [
        0.015163999982178211,
        -0.9795399904251099
      ],
      "type": "VEC2"
    },
    {
      "bufferView": 0,
      "byteOffset": 720,
      "componentType": 5125,
      "count": 324,
      "type": "SCALAR"
    },
    {
      "bufferView": 2,
      "byteOffset": 5712,
      "componentType": 5126,
      "count": 1504,
      "max": [
        47.592098236083984,
        -15.585100173950195,
        6.518119812011719
      ],
      "min": [
        45.25270080566406,
        -17.923900604248047,
        2.0675899982452393
      ],
      "type": "VEC3"
    },
    {
      "bufferView": 2,
      "byteOffset": 23760,
      "componentType": 5126,
      "count": 1504,
      "max": [
        1.0,
        1.0,
        1.0
      ],
      "min": [
        -1.0,
        -1.0,
        -1.0
      ],
      "type": "VEC3"
    },
    {
      "bufferView": 1,
      "byteOffset": 1904,
      "componentType": 5126,
      "count": 1504,
      "max": [
        0.9868800044059753,
        -0.011478999629616737
      ],
      "min": [
        0.07726000249385834,
        -0.9541370272636414
      ],
      "type": "VEC2"
    },
    {
      "bufferView": 0,
      "byteOffset": 2016,
      "componentType": 5125,
      "count": 3789,
      "type": "SCALAR"
    },
    {
      "bufferView": 2,
      "byteOffset": 41808,
      "componentType": 5126,
      "count": 4,
      "max": [
        44.3932991027832,
        -14.291399955749512,
        2.830670118331909
      ],
      "min": [
        43.702999114990234,
        -14.291500091552734,
        2.120419979095459
      ],
      "type": "VEC3"
    },
    {
      "bufferView": 2,
      "byteOffset": 41856,
      "componentType": 5126,
      "count": 4,
      "max": [
        0.0,
        1.0,
        0.0
      ],
      "min": [
        0.0,
        1.0,
        0.0
      ],
      "type": "VEC3"
    },
    {
      "bufferView": 1,
      "byteOffset": 13936,
      "componentType": 5126,
      "count": 4,
      "max": [
        1.0,
        1.0
      ],
      "min": [
        0.0,
        0.0
      ],
      "type": "VEC2"
    },
    {
      "bufferView": 0,
      "byteOffset": 17172,
      "componentType": 5125,
      "count": 6,
      "type": "SCALAR"
    },
    {
      "bufferView": 2,
      "byteOffset": 41904,
      "componentType": 5126,
      "count": 4,
      "max": [
        44.61280059814453,
        -14.291600227355957,
        4.340779781341553
      ],
      "min": [
        43.92250061035156,
        -14.291799545288086,
        3.6305301189422607
      ],
      "type": "VEC3"
    },
    {
      "bufferView": 2,
      "byteOffset": 41952,
      "componentType": 5126,
      "count": 4,
      "max": [
        0.0,
        1.0,
        0.0
      ],
      "min": [
        0.0,
        1.0,
        0.0
      ],
      "type": "VEC3"
    },
    {
      "bufferView": 1,
      "byteOffset": 13968,
      "componentType": 5126,
      "count": 4,
      "max": [
        1.0,
        1.0
      ],
      "min": [
        0.0,
        0.0
      ],
      "type": "VEC2"
    },
    {
      "bufferView": 0,
      "byteOffset": 17196,
      "componentType": 5125,
      "count": 6,
      "type": "SCALAR"
    },
    {
      "bufferView": 2,
      "byteOffset": 42000,
      "componentType": 5126,
      "count": 24,
      "max": [
        49.27859878540039,
        -13.908300399780273,
        5.0004401206970215
      ],
      "min": [
        43.268001556396484,
        -16.532800674438477,
        4.798870086669922
      ],
      "type": "VEC3"
    },
    {
      "bufferView": 2,
      "byteOffset": 42288,
      "componentType": 5126,
      "count": 24,
      "max": [
        0.9999690055847168,
        0.9999690055847168,
        1.0
      ],
      "min": [
        -0.9999690055847168,
        -0.9999690055847168,
        -1.0
      ],
      "type": "VEC3"
    },
    {
      "bufferView": 1,
      "byteOffset": 14000,
      "componentType": 5126,
      "count": 24,
      "max": [
        9.94102954864502,
        -0.13805900514125824
      ],
      "min": [
        3.9410300254821777,
        -6.138060092926025
      ],
      "type": "VEC2"
    },
    {
      "bufferView": 0,
      "byteOffset": 17220,
      "componentType": 5125,
      "count": 36,
      "type": "SCALAR"
    },
    {
      "bufferView": 2,
      "byteOffset": 42576,
      "componentType": 5126,
      "count": 24,
      "max": [
        49.29859924316406,
        -13.888299942016602,
        5.020440101623535
      ],
      "min": [
        43.24800109863281,
        -16.552799224853516,
        4.778870105743408
      ],
      "type": "VEC3"
    },
    {
      "bufferView": 2,
      "byteOffset": 42864,
      "componentType": 5126,
      "count": 24,
      "max": [
        0.9999690055847168,
        0.9999690055847168,
        1.0
      ],
      "min": [
        -0.9999690055847168,
        -0.9999690055847168,
        -1.0
      ],
      "type": "VEC3"
    },
    {
      "bufferView": 1,
      "byteOffset": 14192,
      "componentType": 5126,
      "count": 24,
      "max": [
        1.2000000476837158,
        1.0
      ],
      "min": [
        0.0,
        -0.20000000298023224
      ],
      "type": "VEC2"
    },
    {
      "bufferView": 0,
      "byteOffset": 17364,
      "componentType": 5125,
      "count": 36,
      "type": "SCALAR"
    },
    {
      "bufferView": 2,
      "byteOffset": 43152,
      "componentType": 5126,
      "count": 194,
      "max": [
        44.91830062866211,
        -14.311400413513184,
        4.410860061645508
      ],
      "min": [
        43.607398986816406,
        -16.2268009185791,
        2.05007004737854
      ],
      "type": "VEC3"
    },
    {
      "bufferView": 2,
      "byteOffset": 45480,
      "componentType": 5126,
      "count": 194,
      "max": [
        1.0,
        1.0,
        1.0
      ],
      "min": [
        -1.0,
        -1.0,
        -1.0
      ],
      "type": "VEC3"
    },
    {
      "bufferView": 1,
      "byteOffset": 14384,
      "componentType": 5126,
      "count": 194,
      "max": [
        0.3485180139541626,
        1.0610699653625488
      ],
      "min": [
        -1.1974799633026123,
        -1.5979100465774536
      ],
      "type": "VEC2"
    },
    {
      "bufferView": 0,
      "byteOffset": 17508,
      "componentType": 5125,
      "count": 396,
      "type": "SCALAR"
    }
  ],
  "asset": {
    "extras": {
      "author": "Maxime66410 (https://sketchfab.com/Maxime66410)",
      "license": "CC-BY-4.0 (http://creativecommons.org/licenses/by/4.0/)",
      "source": "https://sketchfab.com/3d-models/desk-scp-version-2-f1204c11317e4c2dae2cbc2e00fe85e8",
      "title": "Desk - SCP - Version 2"
    },
    "generator": "Sketchfab-12.66.0",
    "version": "2.0"
  },
  "bufferViews": [
    {
      "buffer": 0,
      "byteLength": 19092,
      "name": "floatBufferViews",
      "target": 34963
    },
    {
      "buffer": 0,
      "byteLength": 15936,
      "byteOffset": 19092,
      "byteStride": 8,
      "name": "floatBufferViews",
      "target": 34962
    },
    {
      "buffer": 0,
      "byteLength": 47808,
      "byteOffset": 35028,
      "byteStride": 12,
      "name": "floatBufferViews",
      "target": 34962
    }
  ],
  "buffers": [
    {
      "byteLength": 82836,
      "uri": "scene.bin"
    }
  ],
  "images": [
    {
      "uri": "textures/Mesheskeyboard1Mtl_baseColor.png"
    },
    {
      "uri": "textures/Meshesmonitor1Mtl_baseColor.png"
    },
    {
      "uri": "textures/OfficeSeat1Mtl_baseColor.png"
    },
    {
      "uri": "textures/Part2Mtl_baseColor.png"
    },
    {
      "uri": "textures/Part2Mtl_emissive.png"
    },
    {
      "uri": "textures/Part4Mtl_baseColor.png"
    },
    {
      "uri": "textures/Part4Mtl_emissive.png"
    },
    {
      "uri": "textures/Part6Mtl_baseColor.png"
    },
    {
      "uri": "textures/Part6Mtl_emissive.png"
    }
  ],
  "materials": [
    {
      "doubleSided": true,
      "emissiveTexture": {
        "index": 0
      },
      "name": "Mesheskeyboard1Mtl",
      "pbrMetallicRoughness": {
        "baseColorTexture": {
          "index": 0
        },
        "metallicFactor": 0.0,
        "roughnessFactor": 0.9307179676972449
      }
    },
    {
      "doubleSided": true,
      "emissiveTexture": {
        "index": 1
      },
      "name": "Meshesmonitor1Mtl",
      "pbrMetallicRoughness": {
        "baseColorTexture": {
          "index": 1
        },
        "metallicFactor": 0.0,
        "roughnessFactor": 0.9307179676972449
      }
    },
    {
      "doubleSided": true,
      "emissiveTexture": {
        "index": 2
      },
      "name": "OfficeSeat1Mtl",
      "pbrMetallicRoughness": {
        "baseColorTexture": {
          "index": 2
        },
        "metallicFactor": 0.0,
        "roughnessFactor": 0.9307179676972449
      }
    },
    {
      "alphaMode": "BLEND",
      "doubleSided": true,
      "emissiveTexture": {
        "index": 4
      },
      "name": "Part2Mtl",
      "pbrMetallicRoughness": {
        "baseColorTexture": {
          "index": 3
        },
        "metallicFactor": 0.0,
        "roughnessFactor": 0.7352199264282502
      }
    },
    {
      "alphaMode": "BLEND",
      "doubleSided": true,
      "emissiveTexture": {
        "index": 6
      },
      "name": "Part4Mtl",
      "pbrMetallicRoughness": {
        "baseColorTexture": {
          "index": 5
        },
        "metallicFactor": 0.0,
        "roughnessFactor": 0.7352199264282502
      }
    },
    {
      "doubleSided": true,
      "name": "Part5Mtl",
      "pbrMetallicRoughness": {
        "baseColorFactor": [
          0.373615,
          0.368591,
          0.383775,
          1.0
        ],
        "metallicFactor": 0.0,
        "roughnessFactor": 0.91668905668
      }
    },
    {
      "alphaMode": "BLEND",
      "doubleSided": true,
      "emissiveTexture": {
        "index": 8
      },
      "name": "Part6Mtl",
      "pbrMetallicRoughness": {
        "baseColorTexture": {
          "index": 7
        },
        "metallicFactor": 0.0,
        "roughnessFactor": 0.775294
      }
    },
    {
      "doubleSided": true,
      "name": "Union1Mtl",
      "pbrMetallicRoughness": {
        "baseColorFactor": [
          0.373615,
          0.368591,
          0.383775,
          1.0
        ],
        "metallicFactor": 0.0,
        "roughnessFactor": 0.9018313139573843
      }
    }
  ],
  "meshes": [
    {
      "name": "Object_0",
      "primitives": [
        {
          "attributes": {
            "NORMAL": 1,
            "POSITION": 0,
            "TEXCOORD_0": 2
          },
          "indices": 3,
          "material": 0,
          "mode": 4
        }
      ]
    },
    {
      "name": "Object_1",
      "primitives": [
        {
          "attributes": {
            "NORMAL": 5,
            "POSITION": 4,
            "TEXCOORD_0": 6
          },
          "indices": 7,
          "material": 1,
          "mode": 4
        }
      ]
    },
    {
      "name": "Object_2",
      "primitives": [
        {
          "attributes": {
            "NORMAL": 9,
            "POSITION": 8,
            "TEXCOORD_0": 10
          },
          "indices": 11,
          "material": 2,
          "mode": 4
        }
      ]
    },
    {
      "name": "Object_3",
      "primitives": [
        {
          "attributes": {
            "NORMAL": 13,
            "POSITION": 12,
            "TEXCOORD_0": 14
          },
          "indices": 15,
          "material": 3,
          "mode": 4
        }
      ]
    },
    {
      "name": "Object_4",
      "primitives": [
        {
          "attributes": {
            "NORMAL": 17,
            "POSITION": 16,
            "TEXCOORD_0": 18
          },
          "indices": 19,
          "material": 4,
          "mode": 4
        }
      ]
    },
    {
      "name": "Object_5",
      "primitives": [
        {
          "attributes": {
            "NORMAL": 21,
            "POSITION": 20,
            "TEXCOORD_0": 22
          },
          "indices": 23,
          "material": 5,
          "mode": 4
        }
      ]
    },
    {
      "name": "Object_6",
      "primitives": [
        {
          "attributes": {
            "NORMAL": 25,
            "POSITION": 24,
            "TEXCOORD_0": 26
          },
          "indices": 27,
          "material": 6,
          "mode": 4
        }
      ]
    },
    {
      "name": "Object_7",
      "primitives": [
        {
          "attributes": {
            "NORMAL": 29,
            "POSITION": 28,
            "TEXCOORD_0": 30
          },
          "indices": 31,
          "material": 7,
          "mode": 4
        }
      ]
    }
  ],
  "nodes": [
    {
      "children": [
        1
      ],
      "matrix": [
        1.0,
        0.0,
        0.0,
        0.0,
        0.0,
        2.220446049250313e-16,
        -1.0,
        0.0,
        0.0,
        1.0,
        2.220446049250313e-16,
        0.0,
        0.0,
        0.0,
        0.0,
        1.0
      ],
      "name": "Sketchfab_model"
    },
    {
      "children": [
        2,
        3,
        4,
        5,
        6,
        7,
        8,
        9
      ],
      "name": "SCP CB Desk.obj.cleaner.materialmerger.gles"
    },
    {
      "mesh": 0,
      "name": "Object_2"
    },
    {
      "mesh": 1,
      "name": "Object_3"
    },
    {
      "mesh": 2,
      "name": "Object_4"
    },
    {
      "mesh": 3,
      "name": "Object_5"
    },
    {
      "mesh": 4,
      "name": "Object_6"
    },
    {
      "mesh": 5,
      "name": "Object_7"
    },
    {
      "mesh": 6,
      "name": "Object_8"
    },
    {
      "mesh": 7,
      "name": "Object_9"
    }
  ],
  "samplers": [
    {
      "magFilter": 9729,
      "minFilter": 9987,
      "wrapS": 10497,
      "wrapT": 10497
    }
  ],
  "scene": 0,
  "scenes": [
    {
      "name": "Sketchfab_Scene",
      "nodes": [
        0
      ]
    }
  ],
  "textures": [
    {
      "sampler": 0,
      "source": 0
    },
    {
      "sampler": 0,
      "source": 1
    },
    {
      "sampler": 0,
      "source": 2
    },
    {
      "sampler": 0,
      "source": 3
    },
    {
      "sampler": 0,
      "source": 4
    },
    {
      "sampler": 0,
      "source": 5
    },
    {
      "sampler": 0,
      "source": 6
    },
    {
      "sampler": 0,
      "source": 7
    },
    {
      "sampler": 0,
      "source": 8
    }
  ]
}
