{
  "accessors": [
    {
      "bufferView": 2,
      "componentType": 5126,
      "count": 24,
      "max": [
        0.20847700536251068,
        0.18126599490642548,
        3.3025970458984375
      ],
      "min": [
        0.110725998878479,
        -0.18126599490642548,
        3.179481029510498
      ],
      "type": "VEC3"
    },
    {
      "bufferView": 2,
      "byteOffset": 288,
      "componentType": 5126,
      "count": 24,
      "max": [
        0.8045057654380798,
        0.5847576856613159,
        0.6347139477729797
      ],
      "min": [
        -0.8107389807701111,
        -0.5885714292526245,
        -0.6042188405990601
      ],
      "type": "VEC3"
    },
    {
      "bufferView": 1,
      "componentType": 5126,
      "count": 24,
      "max": [
        0.596153974533081,
        0.6884400248527527
      ],
      "min": [
        0.3846150040626526,
        0.6884400248527527
      ],
      "type": "VEC2"
    },
    {
      "bufferView": 0,
      "componentType": 5125,
      "count": 36,
      "type": "SCALAR"
    },
    {
      "bufferView": 2,
      "byteOffset": 576,
      "componentType": 5126,
      "count": 11,
      "max": [
        -0.6651719808578491,
        -0.0,
        0.31246599555015564
      ],
      "min": [
        -0.7242890000343323,
        -0.0,
        0.2809140086174011
      ],
      "type": "VEC3"
    },
    {
      "bufferView": 2,
      "byteOffset": 708,
      "componentType": 5126,
      "count": 11,
      "max": [
        0.0,
        1.0,
        0.0
      ],
      "min": [
        0.0,
        -1.0,
        0.0
      ],
      "type": "VEC3"
    },
    {
      "bufferView": 1,
      "byteOffset": 192,
      "componentType": 5126,
      "count": 11,
      "max": [
        1.0,
        1.0
      ],
      "min": [
        0.0,
        0.0
      ],
      "type": "VEC2"
    },
    {
      "bufferView": 0,
      "byteOffset": 144,
      "componentType": 5125,
      "count": 12,
      "type": "SCALAR"
    },
    {
      "bufferView": 2,
      "byteOffset": 840,
      "componentType": 5126,
      "count": 439,
      "max": [
        0.3966189920902252,
        0.3966189920902252,
        1.6693869829177856
      ],
      "min": [
        -0.3966189920902252,
        -0.3966189920902252,
        0.8761489987373352
      ],
      "type": "VEC3"
    },
    {
      "bufferView": 2,
      "byteOffset": 6108,
      "componentType": 5126,
      "count": 439,
      "max": [
        1.0,
        1.0,
        1.0
      ],
      "min": [
        -1.0,
        -1.0,
        -1.0
      ],
      "type": "VEC3"
    },
    {
      "bufferView": 1,
      "byteOffset": 280,
      "componentType": 5126,
      "count": 439,
      "max": [
        1.0,
        1.0
      ],
      "min": [
        0.0,
        0.0
      ],
      "type": "VEC2"
    },
    {
      "bufferView": 0,
      "byteOffset": 192,
      "componentType": 5125,
      "count": 2280,
      "type": "SCALAR"
    },
    {
      "bufferView": 2,
      "byteOffset": 11376,
      "componentType": 5126,
      "count": 439,
      "max": [
        0.12696599960327148,
        0.12696599960327148,
        1.4444379806518555
      ],
      "min": [
        -0.12696599960327148,
        -0.12696599960327148,
        1.1905070543289185
      ],
      "type": "VEC3"
    },
    {
      "bufferView": 2,
      "byteOffset": 16644,
      "componentType": 5126,
      "count": 439,
      "max": [
        1.0,
        1.0,
        1.0
      ],
      "min": [
        -1.0,
        -1.0,
        -1.0
      ],
      "type": "VEC3"
    },
    {
      "bufferView": 1,
      "byteOffset": 3792,
      "componentType": 5126,
      "count": 439,
      "max": [
        1.0,
        1.0
      ],
      "min": [
        0.0,
        0.0
      ],
      "type": "VEC2"
    },
    {
      "bufferView": 0,
      "byteOffset": 9312,
      "componentType": 5125,
      "count": 2280,
      "type": "SCALAR"
    },
    {
      "bufferView": 2,
      "byteOffset": 21912,
      "componentType": 5126,
      "count": 264,
      "max": [
        0.26164498925209045,
        0.18126599490642548,
        3.395414113998413
      ],
      "min": [
        0.110725998878479,
        -0.18126599490642548,
        3.17273211479187
      ],
      "type": "VEC3"
    },
    {
      "bufferView": 2,
      "byteOffset": 25080,
      "componentType": 5126,
      "count": 264,
      "max": [
        0.9408261179924011,
        0.9860215187072754,
        0.9942539930343628
      ],
      "min": [
        -0.9525579810142517,
        -0.9860228896141052,
        -0.9999561309814453
      ],
      "type": "VEC3"
    },
    {
      "bufferView": 1,
      "byteOffset": 7304,
      "componentType": 5126,
      "count": 264,
      "max": [
        0.596153974533081,
        0.6884400248527527
      ],
      "min": [
        0.3846150040626526,
        0.6884400248527527
      ],
      "type": "VEC2"
    },
    {
      "bufferView": 0,
      "byteOffset": 18432,
      "componentType": 5125,
      "count": 612,
      "type": "SCALAR"
    },
    {
      "bufferView": 2,
      "byteOffset": 28248,
      "componentType": 5126,
      "count": 1814,
      "max": [
        0.955070972442627,
        0.9693319797515869,
        3.6264450550079346
      ],
      "min": [
        -0.9721099734306335,
        -0.9693319797515869,
        0.11505100131034851
      ],
      "type": "VEC3"
    },
    {
      "bufferView": 2,
      "byteOffset": 50016,
      "componentType": 5126,
      "count": 1814,
      "max": [
        1.0,
        1.0,
        1.0
      ],
      "min": [
        -1.0,
        -1.0,
        -1.0
      ],
      "type": "VEC3"
    },
    {
      "bufferView": 1,
      "byteOffset": 9416,
      "componentType": 5126,
      "count": 1814,
      "max": [
        1.0,
        1.0
      ],
      "min": [
        0.0,
        0.0
      ],
      "type": "VEC2"
    },
    {
      "bufferView": 0,
      "byteOffset": 20880,
      "componentType": 5125,
      "count": 9744,
      "type": "SCALAR"
    },
    {
      "bufferView": 2,
      "byteOffset": 71784,
      "componentType": 5126,
      "count": 5394,
      "max": [
        1.001001000404358,
        1.0379780530929565,
        1.6462969779968262
      ],
      "min": [
        -1.0640449523925781,
        -1.0379780530929565,
        0.004606000147759914
      ],
      "type": "VEC3"
    },
    {
      "bufferView": 2,
      "byteOffset": 136512,
      "componentType": 5126,
      "count": 5394,
      "max": [
        0.9994767904281616,
        1.0,
        0.9984062314033508
      ],
      "min": [
        -0.9996187686920166,
        -1.0,
        -0.9987116456031799
      ],
      "type": "VEC3"
    },
    {
      "bufferView": 1,
      "byteOffset": 23928,
      "componentType": 5126,
      "count": 5394,
      "max": [
        1.0,
        1.0
      ],
      "min": [
        0.0,
        0.0
      ],
      "type": "VEC2"
    },
    {
      "bufferView": 0,
      "byteOffset": 59856,
      "componentType": 5125,
      "count": 30828,
      "type": "SCALAR"
    },
    {
      "bufferView": 2,
      "byteOffset": 201240,
      "componentType": 5126,
      "count": 1212,
      "max": [
        0.22072899341583252,
        0.2187180072069168,
        3.9588088989257813
      ],
      "min": [
        -0.22072899341583252,
        -0.2187180072069168,
        3.1334750652313232
      ],
      "type": "VEC3"
    },
    {
      "bufferView": 2,
      "byteOffset": 215784,
      "componentType": 5126,
      "count": 1212,
      "max": [
        1.0,
        1.0,
        1.0
      ],
      "min": [
        -1.0,
        -1.0,
        -1.0
      ],
      "type": "VEC3"
    },
    {
      "bufferView": 1,
      "byteOffset": 67080,
      "componentType": 5126,
      "count": 1212,
      "max": [
        1.0,
        1.0
      ],
      "min": [
        0.0,
        0.0
      ],
      "type": "VEC2"
    },
    {
      "bufferView": 0,
      "byteOffset": 183168,
      "componentType": 5125,
      "count": 4026,
      "type": "SCALAR"
    },
    {
      "bufferView": 2,
      "byteOffset": 230328,
      "componentType": 5126,
      "count": 4768,
      "max": [
        0.5842599868774414,
        0.21305899322032928,
        3.426393985748291
      ],
      "min": [
        -0.307547003030777,
        -0.8101239800453186,
        2.3862431049346924
      ],
      "type": "VEC3"
    },
    {
      "bufferView": 2,
      "byteOffset": 287544,
      "componentType": 5126,
      "count": 4768,
      "max": [
        0.9944726228713989,
        0.9954372644424438,
        0.9867057800292969
      ],
      "min": [
        -0.9890545010566711,
        -0.995437502861023,
        -0.9909020066261292
      ],
      "type": "VEC3"
    },
    {
      "bufferView": 1,
      "byteOffset": 76776,
      "componentType": 5126,
      "count": 4768,
      "max": [
        1.0,
        1.0
      ],
      "min": [
        0.0,
        -0.0
      ],
      "type": "VEC2"
    },
    {
      "bufferView": 0,
      "byteOffset": 199272,
      "componentType": 5125,
      "count": 7464,
      "type": "SCALAR"
    }
  ],
  "asset": {
    "extras": {
      "author": "osmar.edd (https://sketchfab.com/osmar.edd)",
      "license": "CC-BY-4.0 (http://creativecommons.org/licenses/by/4.0/)",
      "source": "https://sketchfab.com/3d-models/bottle-magic-2f68e6714b644df79d0305acb8f1263f",
      "title": "Bottle Magic"
    },
    "generator": "Sketchfab-12.67.0",
    "version": "2.0"
  },
  "bufferViews": [
    {
      "buffer": 0,
      "byteLength": 229128,
      "name": "floatBufferViews",
      "target": 34963
    },
    {
      "buffer": 0,
      "byteLength": 114920,
      "byteOffset": 229128,
      "byteStride": 8,
      "name": "floatBufferViews",
      "target": 34962
    },
    {
      "buffer": 0,
      "byteLength": 344760,
      "byteOffset": 344048,
      "byteStride": 12,
      "name": "floatBufferViews",
      "target": 34962
    }
  ],
  "buffers": [
    {
      "byteLength": 688808,
      "uri": "scene.bin"
    }
  ],
  "materials": [
    {
      "doubleSided": true,
      "name": "aiStandardSurface7SG",
      "pbrMetallicRoughness": {
        "baseColorFactor": [
          0.9700679790705267,
          0.8212069681521299,
          0.0,
          1.0
        ],
        "roughnessFactor": 0.0
      }
    },
    {
      "alphaMode": "BLEND",
      "doubleSided": true,
      "name": "blinn2SG",
      "pbrMetallicRoughness": {
        "baseColorFactor": [
          0.5,
          0.5,
          0.5,
          0.20235576309213288
        ],
        "metallicFactor": 0.7009299624853316,
        "roughnessFactor": 0.007221725674747215
      }
    },
    {
      "doubleSided": true,
      "name": "blinn3SG",
      "pbrMetallicRoughness": {
        "baseColorFactor": [
          0.940665205793594,
          0.5699877727571789,
          0.001666914380246085,
          1.0
        ],
        "roughnessFactor": 0.0
      }
    },
    {
      "doubleSided": true,
      "emissiveFactor": [
        0.1706140273300301,
        0.0,
        1.0
      ],
      "name": "blinn4SG",
      "pbrMetallicRoughness": {
        "baseColorFactor": [
          0.0,
          0.012923250321338217,
          0.8834365490119371,
          1.0
        ],
        "metallicFactor": 0.0,
        "roughnessFactor": 0.3051502106780001
      }
    },
    {
      "doubleSided": true,
      "name": "blinn5SG",
      "pbrMetallicRoughness": {
        "baseColorFactor": [
          0.5,
          0.5,
          0.5,
          1.0
        ],
        "metallicFactor": 0.0
      }
    },
    {
      "doubleSided": true,
      "name": "blinn6SG",
      "pbrMetallicRoughness": {
        "baseColorFactor": [
          0.9873090965038642,
          0.8928293248917687,
          1.0,
          1.0
        ],
        "roughnessFactor": 0.0
      }
    },
    {
      "doubleSided": true,
      "name": "blinn7SG",
      "pbrMetallicRoughness": {
        "baseColorFactor": [
          0.8741016688625401,
          0.5791493383605035,
          0.004325692535419569,
          1.0
        ],
        "roughnessFactor": 0.13547385829548425
      }
    }
  ],
  "meshes": [
    {
      "name": "Object_0",
      "primitives": [
        {
          "attributes": {
            "NORMAL": 1,
            "POSITION": 0,
            "TEXCOORD_0": 2
          },
          "indices": 3,
          "material": 0,
          "mode": 4
        }
      ]
    },
    {
      "name": "Object_1",
      "primitives": [
        {
          "attributes": {
            "NORMAL": 5,
            "POSITION": 4,
            "TEXCOORD_0": 6
          },
          "indices": 7,
          "material": 2,
          "mode": 4
        }
      ]
    },
    {
      "name": "Object_2",
      "primitives": [
        {
          "attributes": {
            "NORMAL": 9,
            "POSITION": 8,
            "TEXCOORD_0": 10
          },
          "indices": 11,
          "material": 3,
          "mode": 4
        }
      ]
    },
    {
      "name": "Object_3",
      "primitives": [
        {
          "attributes": {
            "NORMAL": 13,
            "POSITION": 12,
            "TEXCOORD_0": 14
          },
          "indices": 15,
          "material": 4,
          "mode": 4
        }
      ]
    },
    {
      "name": "Object_4",
      "primitives": [
        {
          "attributes": {
            "NORMAL": 17,
            "POSITION": 16,
            "TEXCOORD_0": 18
          },
          "indices": 19,
          "material": 0,
          "mode": 4
        }
      ]
    },
    {
      "name": "Object_5",
      "primitives": [
        {
          "attributes": {
            "NORMAL": 21,
            "POSITION": 20,
            "TEXCOORD_0": 22
          },
          "indices": 23,
          "material": 1,
          "mode": 4
        }
      ]
    },
    {
      "name": "Object_6",
      "primitives": [
        {
          "attributes": {
            "NORMAL": 25,
            "POSITION": 24,
            "TEXCOORD_0": 26
          },
          "indices": 27,
          "material": 2,
          "mode": 4
        }
      ]
    },
    {
      "name": "Object_7",
      "primitives": [
        {
          "attributes": {
            "NORMAL": 29,
            "POSITION": 28,
            "TEXCOORD_0": 30
          },
          "indices": 31,
          "material": 5,
          "mode": 4
        }
      ]
    },
    {
      "name": "Object_8",
      "primitives": [
        {
          "attributes": {
            "NORMAL": 33,
            "POSITION": 32,
            "TEXCOORD_0": 34
          },
          "indices": 35,
          "material": 6,
          "mode": 4
        }
      ]
    }
  ],
  "nodes": [
    {
      "children": [
        1
      ],
      "matrix": [
        1.0,
        0.0,
        0.0,
        0.0,
        0.0,
        2.220446049250313e-16,
        -1.0,
        0.0,
        0.0,
        1.0,
        2.220446049250313e-16,
        0.0,
        0.0,
        0.0,
        0.0,
        1.0
      ],
      "name": "Sketchfab_model"
    },
    {
      "children": [
        2,
        3,
        4,
        5,
        6,
        7,
        8,
        9,
        10
      ],
      "name": "Bottle.obj.cleaner.materialmerger.gles"
    },
    {
      "mesh": 0,
      "name": "Object_2"
    },
    {
      "mesh": 1,
      "name": "Object_3"
    },
    {
      "mesh": 2,
      "name": "Object_4"
    },
    {
      "mesh": 3,
      "name": "Object_5"
    },
    {
      "mesh": 4,
      "name": "Object_6"
    },
    {
      "mesh": 5,
      "name": "Object_7"
    },
    {
      "mesh": 6,
      "name": "Object_8"
    },
    {
      "mesh": 7,
      "name": "Object_9"
    },
    {
      "mesh": 8,
      "name": "Object_10"
    }
  ],
  "scene": 0,
  "scenes": [
    {
      "name": "Sketchfab_Scene",
      "nodes": [
        0
      ]
    }
  ]
}
