{
	"asset":{
		"generator":"Khronos glTF Blender I/O v4.1.63",
		"version":"2.0"
	},
	"scene":0,
	"scenes":[
		{
			"name":"Scene",
			"nodes":[
				9
			]
		}
	],
	"nodes":[
		{
			"mesh":0,
			"name":"Object_2"
		},
		{
			"mesh":1,
			"name":"Object_3"
		},
		{
			"mesh":2,
			"name":"Object_4"
		},
		{
			"mesh":3,
			"name":"Object_5"
		},
		{
			"mesh":4,
			"name":"Object_6"
		},
		{
			"mesh":5,
			"name":"Object_7"
		},
		{
			"mesh":6,
			"name":"Object_8"
		},
		{
			"mesh":7,
			"name":"Object_9"
		},
		{
			"children":[
				0,
				1,
				2,
				3,
				4,
				5,
				6,
				7
			],
			"name":"SCP CB Desk.obj.cleaner.materialmerger.gles"
		},
		{
			"children":[
				8
			],
			"name":"Sketchfab_model",
			"rotation":[
				-0.70710688829422,
				0,
				0,
				0.7071066498756409
			]
		}
	],
	"materials":[
		{
			"doubleSided":true,
			"emissiveTexture":{
				"index":0
			},
			"name":"Mesheskeyboard1Mtl",
			"pbrMetallicRoughness":{
				"baseColorTexture":{
					"index":1
				},
				"metallicFactor":0,
				"roughnessFactor":0.930717945098877
			}
		},
		{
			"doubleSided":true,
			"emissiveTexture":{
				"index":2
			},
			"name":"Meshesmonitor1Mtl",
			"pbrMetallicRoughness":{
				"baseColorTexture":{
					"index":3
				},
				"metallicFactor":0,
				"roughnessFactor":0.930717945098877
			}
		},
		{
			"doubleSided":true,
			"emissiveTexture":{
				"index":4
			},
			"name":"OfficeSeat1Mtl",
			"pbrMetallicRoughness":{
				"baseColorTexture":{
					"index":5
				},
				"metallicFactor":0,
				"roughnessFactor":0.930717945098877
			}
		},
		{
			"alphaMode":"BLEND",
			"doubleSided":true,
			"emissiveTexture":{
				"index":6
			},
			"name":"Part2Mtl",
			"pbrMetallicRoughness":{
				"baseColorTexture":{
					"index":7
				},
				"metallicFactor":0,
				"roughnessFactor":0.7352199554443359
			}
		},
		{
			"alphaMode":"BLEND",
			"doubleSided":true,
			"emissiveTexture":{
				"index":8
			},
			"name":"Part4Mtl",
			"pbrMetallicRoughness":{
				"baseColorTexture":{
					"index":9
				},
				"metallicFactor":0,
				"roughnessFactor":0.7352199554443359
			}
		},
		{
			"doubleSided":true,
			"name":"Part5Mtl",
			"pbrMetallicRoughness":{
				"baseColorFactor":[
					0.37361499667167664,
					0.3685910105705261,
					0.383774995803833,
					1
				],
				"metallicFactor":0,
				"roughnessFactor":0.9166890382766724
			}
		},
		{
			"alphaMode":"BLEND",
			"doubleSided":true,
			"emissiveTexture":{
				"index":10
			},
			"name":"Part6Mtl",
			"pbrMetallicRoughness":{
				"baseColorTexture":{
					"index":11
				},
				"metallicFactor":0,
				"roughnessFactor":0.7752940058708191
			}
		},
		{
			"doubleSided":true,
			"name":"Union1Mtl",
			"pbrMetallicRoughness":{
				"baseColorFactor":[
					0.37361499667167664,
					0.3685910105705261,
					0.383774995803833,
					1
				],
				"metallicFactor":0,
				"roughnessFactor":0.901831328868866
			}
		}
	],
	"meshes":[
		{
			"name":"Object_0",
			"primitives":[
				{
					"attributes":{
						"POSITION":0,
						"NORMAL":1,
						"TEXCOORD_0":2
					},
					"indices":3,
					"material":0
				}
			]
		},
		{
			"name":"Object_1",
			"primitives":[
				{
					"attributes":{
						"POSITION":4,
						"NORMAL":5,
						"TEXCOORD_0":6
					},
					"indices":7,
					"material":1
				}
			]
		},
		{
			"name":"Object_2",
			"primitives":[
				{
					"attributes":{
						"POSITION":8,
						"NORMAL":9,
						"TEXCOORD_0":10
					},
					"indices":11,
					"material":2
				}
			]
		},
		{
			"name":"Object_3",
			"primitives":[
				{
					"attributes":{
						"POSITION":12,
						"NORMAL":13,
						"TEXCOORD_0":14
					},
					"indices":15,
					"material":3
				}
			]
		},
		{
			"name":"Object_4",
			"primitives":[
				{
					"attributes":{
						"POSITION":16,
						"NORMAL":17,
						"TEXCOORD_0":18
					},
					"indices":19,
					"material":4
				}
			]
		},
		{
			"name":"Object_5",
			"primitives":[
				{
					"attributes":{
						"POSITION":20,
						"NORMAL":21,
						"TEXCOORD_0":22
					},
					"indices":23,
					"material":5
				}
			]
		},
		{
			"name":"Object_6",
			"primitives":[
				{
					"attributes":{
						"POSITION":24,
						"NORMAL":25,
						"TEXCOORD_0":26
					},
					"indices":27,
					"material":6
				}
			]
		},
		{
			"name":"Object_7",
			"primitives":[
				{
					"attributes":{
						"POSITION":28,
						"NORMAL":29,
						"TEXCOORD_0":30
					},
					"indices":31,
					"material":7
				}
			]
		}
	],
	"textures":[
		{
			"sampler":0,
			"source":0
		},
		{
			"sampler":0,
			"source":0
		},
		{
			"sampler":0,
			"source":1
		},
		{
			"sampler":0,
			"source":1
		},
		{
			"sampler":0,
			"source":2
		},
		{
			"sampler":0,
			"source":2
		},
		{
			"sampler":0,
			"source":3
		},
		{
			"sampler":0,
			"source":4
		},
		{
			"sampler":0,
			"source":5
		},
		{
			"sampler":0,
			"source":6
		},
		{
			"sampler":0,
			"source":7
		},
		{
			"sampler":0,
			"source":8
		}
	],
	"images":[
		{
			"mimeType":"image/png",
			"name":"Mesheskeyboard1Mtl_baseColor.png",
			"uri":"textures/Mesheskeyboard1Mtl_baseColor.png"
		},
		{
			"mimeType":"image/png",
			"name":"Meshesmonitor1Mtl_baseColor.png",
			"uri":"textures/Meshesmonitor1Mtl_baseColor.png"
		},
		{
			"mimeType":"image/png",
			"name":"OfficeSeat1Mtl_baseColor.png",
			"uri":"textures/OfficeSeat1Mtl_baseColor.png"
		},
		{
			"mimeType":"image/png",
			"name":"Part2Mtl_emissive.png",
			"uri":"textures/Part2Mtl_emissive.png"
		},
		{
			"mimeType":"image/png",
			"name":"Part2Mtl_baseColor.png",
			"uri":"textures/Part2Mtl_baseColor.png"
		},
		{
			"mimeType":"image/png",
			"name":"Part4Mtl_emissive.png",
			"uri":"textures/Part4Mtl_emissive.png"
		},
		{
			"mimeType":"image/png",
			"name":"Part4Mtl_baseColor.png",
			"uri":"textures/Part4Mtl_baseColor.png"
		},
		{
			"mimeType":"image/png",
			"name":"Part6Mtl_emissive.png",
			"uri":"textures/Part6Mtl_emissive.png"
		},
		{
			"mimeType":"image/png",
			"name":"Part6Mtl_baseColor.png",
			"uri":"textures/Part6Mtl_baseColor.png"
		}
	],
	"accessors":[
		{
			"bufferView":0,
			"componentType":5126,
			"count":84,
			"max":[
				1.0129371881484985,
				0.8373145461082458,
				3.1619722843170166
			],
			"min":[
				-0.9911636710166931,
				-0.05648523569107056,
				2.9613020420074463
			],
			"type":"VEC3"
		},
		{
			"bufferView":1,
			"componentType":5126,
			"count":84,
			"type":"VEC3"
		},
		{
			"bufferView":2,
			"componentType":5126,
			"count":84,
			"type":"VEC2"
		},
		{
			"bufferView":3,
			"componentType":5123,
			"count":180,
			"type":"SCALAR"
		},
		{
			"bufferView":4,
			"componentType":5126,
			"count":181,
			"max":[
				0.9818359017372131,
				1.8345144987106323,
				4.668831825256348
			],
			"min":[
				-0.8643631339073181,
				1.2975149154663086,
				2.9687020778656006
			],
			"type":"VEC3"
		},
		{
			"bufferView":5,
			"componentType":5126,
			"count":181,
			"type":"VEC3"
		},
		{
			"bufferView":6,
			"componentType":5126,
			"count":181,
			"type":"VEC2"
		},
		{
			"bufferView":7,
			"componentType":5123,
			"count":324,
			"type":"SCALAR"
		},
		{
			"bufferView":8,
			"componentType":5126,
			"count":1648,
			"max":[
				1.1824356317520142,
				0.35541433095932007,
				4.474581718444824
			],
			"min":[
				-1.1569617986679077,
				-1.9833860397338867,
				0.024052463471889496
			],
			"type":"VEC3"
		},
		{
			"bufferView":9,
			"componentType":5126,
			"count":1648,
			"type":"VEC3"
		},
		{
			"bufferView":10,
			"componentType":5126,
			"count":1648,
			"type":"VEC2"
		},
		{
			"bufferView":11,
			"componentType":5123,
			"count":3789,
			"type":"SCALAR"
		},
		{
			"bufferView":12,
			"componentType":5126,
			"count":4,
			"max":[
				-2.0163636207580566,
				1.6491144895553589,
				0.7871325612068176
			],
			"min":[
				-2.7066636085510254,
				1.6490143537521362,
				0.07688244432210922
			],
			"type":"VEC3"
		},
		{
			"bufferView":13,
			"componentType":5126,
			"count":4,
			"type":"VEC3"
		},
		{
			"bufferView":14,
			"componentType":5126,
			"count":4,
			"type":"VEC2"
		},
		{
			"bufferView":15,
			"componentType":5123,
			"count":6,
			"type":"SCALAR"
		},
		{
			"bufferView":16,
			"componentType":5126,
			"count":6,
			"max":[
				-1.796862006187439,
				1.6489142179489136,
				2.2972419261932373
			],
			"min":[
				-2.4871621131896973,
				1.6487149000167847,
				1.586992621421814
			],
			"type":"VEC3"
		},
		{
			"bufferView":17,
			"componentType":5126,
			"count":6,
			"type":"VEC3"
		},
		{
			"bufferView":18,
			"componentType":5126,
			"count":6,
			"type":"VEC2"
		},
		{
			"bufferView":19,
			"componentType":5123,
			"count":6,
			"type":"SCALAR"
		},
		{
			"bufferView":20,
			"componentType":5126,
			"count":28,
			"max":[
				2.868936061859131,
				2.0322141647338867,
				2.956902265548706
			],
			"min":[
				-3.1416611671447754,
				-0.592286229133606,
				2.7553322315216064
			],
			"type":"VEC3"
		},
		{
			"bufferView":21,
			"componentType":5126,
			"count":28,
			"type":"VEC3"
		},
		{
			"bufferView":22,
			"componentType":5126,
			"count":28,
			"type":"VEC2"
		},
		{
			"bufferView":23,
			"componentType":5123,
			"count":36,
			"type":"SCALAR"
		},
		{
			"bufferView":24,
			"componentType":5126,
			"count":28,
			"max":[
				2.8889365196228027,
				2.0522146224975586,
				2.9769022464752197
			],
			"min":[
				-3.1616616249084473,
				-0.612284779548645,
				2.7353322505950928
			],
			"type":"VEC3"
		},
		{
			"bufferView":25,
			"componentType":5126,
			"count":28,
			"type":"VEC3"
		},
		{
			"bufferView":26,
			"componentType":5126,
			"count":28,
			"type":"VEC2"
		},
		{
			"bufferView":27,
			"componentType":5123,
			"count":36,
			"type":"SCALAR"
		},
		{
			"bufferView":28,
			"componentType":5126,
			"count":285,
			"max":[
				-1.4913619756698608,
				1.629114031791687,
				2.3673222064971924
			],
			"min":[
				-2.8022637367248535,
				-0.2862864136695862,
				0.0065325116738677025
			],
			"type":"VEC3"
		},
		{
			"bufferView":29,
			"componentType":5126,
			"count":285,
			"type":"VEC3"
		},
		{
			"bufferView":30,
			"componentType":5126,
			"count":285,
			"type":"VEC2"
		},
		{
			"bufferView":31,
			"componentType":5123,
			"count":396,
			"type":"SCALAR"
		}
	],
	"bufferViews":[
		{
			"buffer":0,
			"byteLength":1008,
			"byteOffset":0,
			"target":34962
		},
		{
			"buffer":0,
			"byteLength":1008,
			"byteOffset":1008,
			"target":34962
		},
		{
			"buffer":0,
			"byteLength":672,
			"byteOffset":2016,
			"target":34962
		},
		{
			"buffer":0,
			"byteLength":360,
			"byteOffset":2688,
			"target":34963
		},
		{
			"buffer":0,
			"byteLength":2172,
			"byteOffset":3048,
			"target":34962
		},
		{
			"buffer":0,
			"byteLength":2172,
			"byteOffset":5220,
			"target":34962
		},
		{
			"buffer":0,
			"byteLength":1448,
			"byteOffset":7392,
			"target":34962
		},
		{
			"buffer":0,
			"byteLength":648,
			"byteOffset":8840,
			"target":34963
		},
		{
			"buffer":0,
			"byteLength":19776,
			"byteOffset":9488,
			"target":34962
		},
		{
			"buffer":0,
			"byteLength":19776,
			"byteOffset":29264,
			"target":34962
		},
		{
			"buffer":0,
			"byteLength":13184,
			"byteOffset":49040,
			"target":34962
		},
		{
			"buffer":0,
			"byteLength":7578,
			"byteOffset":62224,
			"target":34963
		},
		{
			"buffer":0,
			"byteLength":48,
			"byteOffset":69804,
			"target":34962
		},
		{
			"buffer":0,
			"byteLength":48,
			"byteOffset":69852,
			"target":34962
		},
		{
			"buffer":0,
			"byteLength":32,
			"byteOffset":69900,
			"target":34962
		},
		{
			"buffer":0,
			"byteLength":12,
			"byteOffset":69932,
			"target":34963
		},
		{
			"buffer":0,
			"byteLength":72,
			"byteOffset":69944,
			"target":34962
		},
		{
			"buffer":0,
			"byteLength":72,
			"byteOffset":70016,
			"target":34962
		},
		{
			"buffer":0,
			"byteLength":48,
			"byteOffset":70088,
			"target":34962
		},
		{
			"buffer":0,
			"byteLength":12,
			"byteOffset":70136,
			"target":34963
		},
		{
			"buffer":0,
			"byteLength":336,
			"byteOffset":70148,
			"target":34962
		},
		{
			"buffer":0,
			"byteLength":336,
			"byteOffset":70484,
			"target":34962
		},
		{
			"buffer":0,
			"byteLength":224,
			"byteOffset":70820,
			"target":34962
		},
		{
			"buffer":0,
			"byteLength":72,
			"byteOffset":71044,
			"target":34963
		},
		{
			"buffer":0,
			"byteLength":336,
			"byteOffset":71116,
			"target":34962
		},
		{
			"buffer":0,
			"byteLength":336,
			"byteOffset":71452,
			"target":34962
		},
		{
			"buffer":0,
			"byteLength":224,
			"byteOffset":71788,
			"target":34962
		},
		{
			"buffer":0,
			"byteLength":72,
			"byteOffset":72012,
			"target":34963
		},
		{
			"buffer":0,
			"byteLength":3420,
			"byteOffset":72084,
			"target":34962
		},
		{
			"buffer":0,
			"byteLength":3420,
			"byteOffset":75504,
			"target":34962
		},
		{
			"buffer":0,
			"byteLength":2280,
			"byteOffset":78924,
			"target":34962
		},
		{
			"buffer":0,
			"byteLength":792,
			"byteOffset":81204,
			"target":34963
		}
	],
	"samplers":[
		{
			"magFilter":9729,
			"minFilter":9987
		}
	],
	"buffers":[
		{
			"byteLength":81996,
			"uri":"scene.bin"
		}
	]
}
